# xmcd
# 
# Track frame offsets:
#     150
#     16894
#     32308
#     55384
#     70465
#     91250
#     112645
#     129026
#     146962
#     162485
#     174866
#     195618
# 
# Disc length: 2927
# 
# Revision: 0
# Processed by: cddbd v1.5.2PL0 Copyright (c) Steve Scherf et al.
# Submitted via: fre:ac v1.0.31
# 
DISCID=940b6d0c
DTITLE=Irma - Faces
DYEAR=2014
DGENRE=Pop-Folk
TTITLE0=Hear me out
TTITLE1=Save me
TTITLE2=Catch the wind
TTITLE3=Street lights
TTITLE4=Where do you go
TTITLE5=It ain't easy
TTITLE6=Everything comes and goes
TTITLE7=Trouble maker
TTITLE8=Love me
TTITLE9=What are you trying to do (interlude)
TTITLE10=Train
TTITLE11=Unconditional
EXTD=
EXTT0=
EXTT1=
EXTT2=
EXTT3=
EXTT4=
EXTT5=
EXTT6=
EXTT7=
EXTT8=
EXTT9=
EXTT10=
EXTT11=
PLAYORDER=
